<svg width="50" height="48" viewBox="0 0 56 54" fill="none" xmlns="http://www.w3.org/2000/svg">
<path d="M20.3504 0.516335C19.7255 0.788033 18.9104 1.38578 18.53 1.84767C17.9051 2.58126 17.2259 4.67337 17.2259 5.84168C17.2259 6.68396 16.601 6.49377 15.2153 5.21677C14.4002 4.48317 13.3134 3.69524 12.7971 3.45071C10.4605 2.33673 7.44462 3.42354 6.14045 5.84168C5.78724 6.46659 5.70573 7.33604 5.7329 9.78135C5.78724 12.9059 5.78724 12.9059 4.51024 15.6229C3.26042 18.2584 3.23325 18.4215 3.23325 20.9211C3.23325 22.334 3.34193 23.9913 3.45061 24.5891C3.69514 25.7031 3.69514 25.7031 2.33663 26.5453C1.19549 27.2518 0.923785 27.605 0.489063 28.8276C0.190191 29.7242 0 31.0284 0 32.1967C0 33.99 0.108681 34.2888 1.63021 37.1689C3.17891 40.1576 3.23325 40.3206 3.26042 42.4127C3.26042 43.581 3.34193 44.6135 3.42344 44.695C3.47778 44.7765 3.9125 44.695 4.37439 44.5591C5.89592 44.0157 10.2975 44.8852 13.6394 46.3795C16.3293 47.575 16.7096 47.6837 18.7202 47.6837C20.8938 47.6837 20.8938 47.6837 22.1165 48.9064C23.8826 50.6996 24.8335 50.8898 30.9468 50.917C35.8646 50.9441 36.1906 50.9713 37.9024 51.6777C38.9077 52.0581 40.2118 52.7102 40.8096 53.0906C41.8149 53.7155 41.9507 53.7427 42.3311 53.3623C42.5756 53.1449 42.7658 52.683 42.7658 52.357C42.7658 51.406 43.5266 50.4822 46.8413 47.4935C50.618 44.0701 51.5418 42.7387 51.6776 40.3206C51.7591 39.1251 51.6505 38.2557 51.3516 37.4677C50.8897 36.3266 50.8897 36.3266 52.4112 34.8866C55.6173 31.8435 56.8671 26.4367 55.3728 22.1709C54.8837 20.8396 54.9109 19.0735 55.3999 18.2041C55.9705 17.226 55.9162 14.2373 55.2913 12.9059C55.0196 12.3082 54.3675 11.4116 53.7969 10.9225C52.4927 9.78135 50.944 9.72701 49.5584 10.7323C49.0421 11.1127 48.5259 11.4116 48.4172 11.4116C48.0097 11.4116 45.5372 9.50965 45.3741 9.04776C45.2655 8.80323 45.4013 8.01529 45.6459 7.2817C46.2979 5.29828 46.0806 2.17371 45.2655 1.2771C44.5319 0.516335 42.8473 9.91821e-05 40.9998 9.91821e-05C38.5816 9.91821e-05 34.4246 1.87484 32.6042 3.77675C32.1423 4.23864 31.6532 4.61903 31.463 4.61903C31.2728 4.61903 30.3491 3.83109 29.3981 2.90731C28.1483 1.63031 27.2788 1.03257 26.1105 0.597843C24.1543 -0.13575 21.8448 -0.162922 20.3504 0.516335ZM26.192 1.90201C27.5505 2.58126 29.1807 3.99411 29.1807 4.51035C29.1807 4.75488 28.7188 4.80922 27.5505 4.70053C25.5671 4.51035 23.9369 5.05375 22.7414 6.33075C20.5135 8.66738 19.9429 11.8191 21.3829 14.1286C21.7905 14.8078 22.3882 15.6773 22.7142 16.0848C23.0403 16.4924 23.2305 16.8999 23.149 16.9814C22.9316 17.226 18.3942 15.5143 17.6063 14.8622C16.927 14.3459 15.8945 12.4712 15.8674 11.7648C15.8674 11.6018 16.3564 10.8682 16.9542 10.1889C18.1225 8.8304 18.2312 8.58587 18.3942 6.08621C18.5844 3.77675 19.5897 2.03786 21.1655 1.33144C22.0893 0.923885 24.8879 1.22276 26.192 1.90201ZM43.0919 1.35861C43.6624 1.52163 44.2873 1.92918 44.5319 2.25522C45.0753 3.04316 45.0481 5.40696 44.5047 7.20019C43.8798 9.12927 44.1243 9.86287 45.7545 11.0312C47.3847 12.1995 47.6564 12.6342 47.6564 14.1829C47.6293 16.3837 46.3523 18.2313 43.5809 19.9702C42.3311 20.7581 40.4564 21.3015 37.1144 21.8721C32.9846 22.5785 32.8759 22.1166 36.6254 19.8615C40.5922 17.4433 42.5756 14.6992 42.6028 11.5474C42.63 9.15644 41.7062 7.41755 39.9401 6.54811C38.6631 5.92319 38.5273 5.89602 36.6797 6.22206C35.6201 6.38509 34.2344 6.84698 33.6095 7.22736C32.2781 7.98812 31.8978 7.90661 31.8978 6.84698C31.8978 5.92319 34.3159 3.55939 36.2993 2.55409C39.0707 1.14125 41.0269 0.788033 43.0919 1.35861ZM12.1451 4.45601C13.2862 4.9179 15.7315 6.87415 16.3021 7.77076C16.6825 8.31417 16.7096 8.50436 16.4108 8.77606C16.1391 9.02059 16.0304 9.02059 15.9489 8.74889C15.6772 8.01529 14.4002 6.7383 13.3949 6.24923C11.7647 5.40696 10.542 5.54281 9.45521 6.62962C8.64011 7.44472 8.53143 7.71642 8.5586 8.85757C8.5586 9.59116 8.66728 10.7595 8.77596 11.4659C8.88464 12.1995 8.91181 12.7701 8.80313 12.7701C8.42275 12.7701 7.11858 9.56399 6.98273 8.28699C6.87405 7.17302 6.95556 6.76547 7.49896 6.0047C8.17822 4.97224 9.67257 4.07562 10.6507 4.07562C10.9767 4.07562 11.656 4.23864 12.1451 4.45601ZM53.1992 11.955C55.1826 13.6939 55.2369 16.4652 53.3622 19.5626C52.6014 20.8124 51.9222 22.4426 51.4603 24.1544C51.0799 25.6215 50.4278 27.3604 50.0202 28.0397C48.8519 30.0503 46.3523 31.9522 45.7274 31.3273C45.5372 31.1371 45.8632 30.7567 46.8142 30.0775C48.6074 28.7733 49.3953 27.5235 50.1018 24.8608C50.4006 23.6653 51.2429 21.5189 51.9493 20.106C53.4165 17.1445 53.661 15.2154 52.7101 14.1557C52.0852 13.4765 50.6452 13.395 49.7214 14.0199C48.4172 14.8622 48.6346 13.0689 49.9931 11.8191C50.9984 10.8953 52.0308 10.9497 53.1992 11.955ZM31.3815 12.4984C32.3596 13.0418 32.0064 13.5852 30.7023 13.5852C29.5068 13.5852 28.6917 13.0689 29.0449 12.4984C29.2623 12.1452 30.7023 12.1452 31.3815 12.4984ZM7.93368 14.4274C8.23256 15.4327 8.20539 16.0033 7.85217 18.0682C7.41745 20.8124 7.5533 22.4698 8.50426 25.0238C9.102 26.5997 9.99862 27.6321 11.4386 28.3657C12.3352 28.8276 13.1504 29.7514 13.1504 30.3492C13.1504 30.8654 10.8681 30.811 9.80842 30.2676C6.24913 28.4472 3.93967 24.3717 4.23854 20.4049C4.37439 18.7475 6.79254 12.9603 7.2816 13.1233C7.44462 13.1776 7.71632 13.7482 7.93368 14.4274ZM36.8156 15.6773C37.0329 16.7641 36.8971 16.9271 35.4299 17.3347C32.2238 18.2313 31.3 18.2856 29.1264 17.7965C26.8713 17.3075 26.4094 16.8728 27.0071 15.7588C27.3332 15.161 27.3332 15.1882 28.8819 16.2207C29.5883 16.7097 30.186 16.8456 31.4087 16.8456C33.2563 16.8456 34.4789 16.4109 35.4027 15.3784C36.2178 14.509 36.571 14.5905 36.8156 15.6773ZM15.0523 15.7588C15.65 16.0577 16.5738 16.6826 17.09 17.1716C18.2855 18.2041 20.4863 21.2472 20.4863 21.8177C20.4863 22.4426 18.5029 22.986 17.5519 22.66C16.9813 22.4698 16.5195 21.8177 15.5685 19.8615C14.8621 18.4758 13.9655 17.0086 13.5851 16.6011C12.2537 15.2154 13.0417 14.7263 15.0523 15.7588ZM14.5632 20.5136C14.8077 21.057 14.7806 21.3015 14.4817 21.6547C12.7971 23.6925 13.1775 27.9854 15.1881 29.5884C15.7043 29.9688 15.8674 30.2676 15.6772 30.4578C15.2968 30.8382 13.5307 28.8276 12.8243 27.2246C12.1179 25.6216 12.2537 22.9589 13.1232 21.1113C13.8296 19.6713 14.1285 19.5354 14.5632 20.5136ZM45.4285 21.546C45.836 23.611 44.07 25.7302 41.2715 26.5997C38.4458 27.4691 37.0601 27.3061 37.0601 26.0291C37.0601 25.4585 39.2337 23.774 42.1137 22.1166C44.3417 20.8668 45.2655 20.7038 45.4285 21.546ZM54.3946 22.986C54.6392 23.6925 54.7207 24.9695 54.6663 26.7627C54.5848 29.045 54.449 29.7242 53.8512 30.9741C52.9275 32.8488 50.944 34.8594 49.1508 35.756C47.4663 36.5711 44.5047 36.9243 43.7983 36.3538C43.3636 36.0277 43.3907 35.919 44.0156 34.8594C44.5319 34.0171 45.2111 33.4466 46.6511 32.6314C49.9387 30.811 51.2701 29.0722 52.4112 24.9966C52.7916 23.5838 53.172 22.2525 53.2535 22.0623C53.4437 21.4102 54.0414 21.8721 54.3946 22.986ZM27.0343 23.6381C30.7838 24.3446 33.3921 25.214 34.8593 26.1921C36.408 27.2518 36.4623 27.768 35.0223 28.0397C34.4246 28.1212 32.9574 28.5559 31.7619 28.9363C30.5664 29.3439 28.8547 29.7242 27.9581 29.8058C26.4366 29.9144 26.2192 29.8601 24.8335 28.9635C23.3935 28.0125 23.2848 27.9854 20.758 27.9854C17.1444 27.9854 16.3021 27.3061 17.3617 25.2683C18.4214 23.2306 21.9263 22.6328 27.0343 23.6381ZM44.6134 29.371C44.4775 31.8163 43.6081 33.8269 42.0322 35.4571C40.402 37.1417 36.8699 38.473 37.1144 37.3319C37.1688 37.0602 37.685 36.7341 38.3371 36.544C40.9454 35.7832 41.9779 34.642 43.0375 31.5175C43.4994 30.1861 43.6081 29.3982 43.4722 28.3386C43.3092 26.8714 43.6081 26.4095 44.3689 27.0072C44.6406 27.2246 44.6949 27.8223 44.6134 29.371ZM4.56459 27.4148C4.6461 27.5235 4.40156 27.931 3.99401 28.2842C1.95625 30.1861 2.14644 32.7945 4.59176 36.1364C5.67856 37.6308 6.05894 38.5274 6.33065 40.2119C6.49367 41.4346 6.49367 41.4346 8.15104 41.6248C9.40087 41.7606 10.5964 42.1953 12.8243 43.3093C16.5466 45.1841 17.9051 45.5644 19.2636 45.1025C20.9482 44.5591 21.3014 45.7818 19.644 46.4611C18.6116 46.8958 17.3346 46.6512 14.7262 45.5101C11.9277 44.2874 10.1616 43.7712 7.44462 43.4723C6.22196 43.3365 5.05365 43.092 4.86346 42.9289C4.67327 42.7931 4.4559 42.0051 4.37439 41.19C4.23854 39.75 3.83099 38.7447 2.06493 35.4843C1.33134 34.153 1.19549 33.6096 1.19549 32.0609C1.19549 29.9144 1.49436 28.9635 2.49965 27.9038C3.17891 27.1974 4.26571 26.9257 4.56459 27.4148ZM18.041 31.1371C18.041 32.2782 18.1768 33.6911 18.367 34.2617C18.7746 35.7017 20.8395 37.5764 23.149 38.6632C24.6977 39.3968 25.2682 39.5055 27.0071 39.5055C29.7241 39.5055 32.251 38.6361 33.9355 37.1689C35.7287 35.593 36.3265 34.2888 36.4895 31.5175C36.6525 29.208 36.6525 29.208 37.1688 29.9959C38.3371 31.6805 37.3861 35.4571 35.2669 37.6308C32.1423 40.864 25.8388 41.9236 21.4101 39.9674C19.9157 39.2881 18.1225 37.4949 17.4161 35.8919C16.4923 33.9356 16.764 29.0722 17.7693 29.0722C17.9323 29.0722 18.041 29.9144 18.041 31.1371ZM50.2376 38.0383C50.8354 39.2066 50.7267 40.7282 49.9387 42.3584C49.3953 43.4452 48.4172 44.532 45.9991 46.6784C44.0428 48.4445 42.5485 50.0203 42.1681 50.7268C41.8149 51.3789 41.4345 51.8951 41.3258 51.8951C41.2171 51.8951 40.6737 51.6777 40.1031 51.3789C37.4405 50.0203 35.6201 49.7215 30.5664 49.7486C24.752 49.803 23.8011 49.5041 22.4154 47.2762C21.3014 45.4286 22.0078 41.8421 23.475 41.8421C24.0999 41.8421 24.1271 42.0867 23.7195 43.5538C23.475 44.4233 23.5294 44.7765 23.9912 45.7275C24.9694 47.7652 25.5943 47.9554 31.2185 47.9554C35.6201 47.9826 36.2721 48.0369 37.7393 48.6075C40.3748 49.5856 40.402 49.5856 40.9454 48.5803C41.2171 48.0913 42.0051 47.249 42.7115 46.7328C46.6511 43.7984 48.0368 41.8421 48.0912 39.1251C48.1183 38.147 48.1455 37.3319 48.1727 37.2775C48.1727 37.2504 48.5531 37.2232 49.0149 37.2232C49.6399 37.2232 49.9116 37.4134 50.2376 38.0383Z" fill="#E63946"/>
</svg>
